<svg xmlns="http://www.w3.org/2000/svg" width="364" height="34" viewBox="0 0 364 34">
  <g id="Group_110" data-name="Group 110" transform="translate(-20160.764 3088.791)">
    <g id="Rectangle_93" data-name="Rectangle 93" transform="translate(20161.764 -3087.791)" fill="none" stroke="#000" stroke-width="1">
      <rect width="32" height="32" stroke="none"/>
      <rect x="-0.5" y="-0.5" width="33" height="33" fill="none"/>
    </g>
    <g id="Rectangle_93-2" data-name="Rectangle 93" transform="translate(20194.764 -3087.791)" fill="none" stroke="#000" stroke-width="1">
      <rect width="32" height="32" stroke="none"/>
      <rect x="-0.5" y="-0.5" width="33" height="33" fill="none"/>
    </g>
    <g id="Rectangle_93-3" data-name="Rectangle 93" transform="translate(20227.764 -3087.791)" fill="none" stroke="#000" stroke-width="1">
      <rect width="32" height="32" stroke="none"/>
      <rect x="-0.5" y="-0.5" width="33" height="33" fill="none"/>
    </g>
    <g id="Rectangle_93-4" data-name="Rectangle 93" transform="translate(20260.764 -3087.791)" fill="none" stroke="#000" stroke-width="1">
      <rect width="32" height="32" stroke="none"/>
      <rect x="-0.5" y="-0.5" width="33" height="33" fill="none"/>
    </g>
    <g id="Rectangle_93-5" data-name="Rectangle 93" transform="translate(20293.764 -3087.791)" fill="none" stroke="#000" stroke-width="1">
      <rect width="32" height="32" stroke="none"/>
      <rect x="-0.5" y="-0.5" width="33" height="33" fill="none"/>
    </g>
    <g id="Rectangle_93-6" data-name="Rectangle 93" transform="translate(20326.764 -3087.791)" fill="none" stroke="#000" stroke-width="1">
      <rect width="32" height="32" stroke="none"/>
      <rect x="-0.5" y="-0.5" width="33" height="33" fill="none"/>
    </g>
    <g id="Rectangle_93-7" data-name="Rectangle 93" transform="translate(20359.764 -3087.791)" fill="none" stroke="#000" stroke-width="1">
      <rect width="32" height="32" stroke="none"/>
      <rect x="-0.5" y="-0.5" width="33" height="33" fill="none"/>
    </g>
    <g id="Rectangle_93-8" data-name="Rectangle 93" transform="translate(20392.764 -3087.791)" fill="none" stroke="#000" stroke-width="1">
      <rect width="32" height="32" stroke="none"/>
      <rect x="-0.5" y="-0.5" width="33" height="33" fill="none"/>
    </g>
    <g id="Rectangle_93-9" data-name="Rectangle 93" transform="translate(20425.764 -3087.791)" fill="none" stroke="#000" stroke-width="1">
      <rect width="32" height="32" stroke="none"/>
      <rect x="-0.5" y="-0.5" width="33" height="33" fill="none"/>
    </g>
    <g id="Rectangle_93-10" data-name="Rectangle 93" transform="translate(20458.764 -3087.791)" fill="none" stroke="#000" stroke-width="1">
      <rect width="32" height="32" stroke="none"/>
      <rect x="-0.5" y="-0.5" width="33" height="33" fill="none"/>
    </g>
    <g id="Rectangle_93-11" data-name="Rectangle 93" transform="translate(20491.764 -3087.791)" fill="none" stroke="#000" stroke-width="1">
      <rect width="32" height="32" stroke="none"/>
      <rect x="-0.5" y="-0.5" width="33" height="33" fill="none"/>
    </g>
  </g>
</svg>
