<svg id="round-favorite_border-24px_1_" data-name="round-favorite_border-24px (1)" xmlns="http://www.w3.org/2000/svg" width="16" height="16" viewBox="0 0 16 16">
  <path id="Path_96" data-name="Path 96" d="M0,0H16V16H0Z" fill="none"/>
  <path id="Path_97" data-name="Path 97" d="M12.973,3.579a3.757,3.757,0,0,0-4.76.644,3.75,3.75,0,0,0-4.76-.644A3.158,3.158,0,0,0,2,6.089c-.087,2.27,2.051,4.089,5.313,6.88l.062.053a1.3,1.3,0,0,0,1.672-.006l.068-.059c3.262-2.785,5.394-4.6,5.313-6.874A3.157,3.157,0,0,0,12.973,3.579Z" transform="translate(-0.213 -0.32)"/>
</svg>
