<svg id="round-favorite_border-24px_1_" data-name="round-favorite_border-24px (1)" xmlns="http://www.w3.org/2000/svg" width="16" height="16" viewBox="0 0 16 16">
  <path id="Path_96" data-name="Path 96" d="M0,0H16V16H0Z" fill="none"/>
  <path id="Path_97" data-name="Path 97" d="M12.973,3.579a3.757,3.757,0,0,0-4.76.644,3.75,3.75,0,0,0-4.76-.644A3.158,3.158,0,0,0,2,6.089c-.087,2.27,2.051,4.089,5.313,6.88l.062.053a1.3,1.3,0,0,0,1.672-.006l.068-.059c3.262-2.785,5.394-4.6,5.313-6.874A3.157,3.157,0,0,0,12.973,3.579ZM8.275,12.1l-.062.059L8.151,12.1C5.193,9.576,3.241,7.908,3.241,6.217A2.064,2.064,0,0,1,5.416,4.17,2.437,2.437,0,0,1,7.635,5.55H8.8A2.421,2.421,0,0,1,11.009,4.17a2.064,2.064,0,0,1,2.175,2.048C13.184,7.908,11.233,9.576,8.275,12.1Z" transform="translate(-0.213 -0.32)"/>
</svg>
