<svg xmlns="http://www.w3.org/2000/svg" width="430" height="34" viewBox="0 0 430 34">
  <g id="Group_107" data-name="Group 107" transform="translate(-20115.764 3193.791)">
    <g id="Rectangle_93" data-name="Rectangle 93" transform="translate(20116.764 -3192.791)" fill="none" stroke="#000" stroke-width="1">
      <rect width="32" height="32" stroke="none"/>
      <rect x="-0.5" y="-0.5" width="33" height="33" fill="none"/>
    </g>
    <g id="Rectangle_93-2" data-name="Rectangle 93" transform="translate(20149.764 -3192.791)" fill="none" stroke="#000" stroke-width="1">
      <rect width="32" height="32" stroke="none"/>
      <rect x="-0.5" y="-0.5" width="33" height="33" fill="none"/>
    </g>
    <g id="Rectangle_93-3" data-name="Rectangle 93" transform="translate(20182.764 -3192.791)" fill="none" stroke="#000" stroke-width="1">
      <rect width="32" height="32" stroke="none"/>
      <rect x="-0.5" y="-0.5" width="33" height="33" fill="none"/>
    </g>
    <g id="Rectangle_93-4" data-name="Rectangle 93" transform="translate(20215.764 -3192.791)" fill="none" stroke="#000" stroke-width="1">
      <rect width="32" height="32" stroke="none"/>
      <rect x="-0.5" y="-0.5" width="33" height="33" fill="none"/>
    </g>
    <g id="Rectangle_93-5" data-name="Rectangle 93" transform="translate(20248.764 -3192.791)" fill="none" stroke="#000" stroke-width="1">
      <rect width="32" height="32" stroke="none"/>
      <rect x="-0.5" y="-0.5" width="33" height="33" fill="none"/>
    </g>
    <g id="Rectangle_93-6" data-name="Rectangle 93" transform="translate(20281.764 -3192.791)" fill="none" stroke="#000" stroke-width="1">
      <rect width="32" height="32" stroke="none"/>
      <rect x="-0.5" y="-0.5" width="33" height="33" fill="none"/>
    </g>
    <g id="Rectangle_93-7" data-name="Rectangle 93" transform="translate(20314.764 -3192.791)" fill="none" stroke="#000" stroke-width="1">
      <rect width="32" height="32" stroke="none"/>
      <rect x="-0.5" y="-0.5" width="33" height="33" fill="none"/>
    </g>
    <g id="Rectangle_93-8" data-name="Rectangle 93" transform="translate(20347.764 -3192.791)" fill="none" stroke="#000" stroke-width="1">
      <rect width="32" height="32" stroke="none"/>
      <rect x="-0.5" y="-0.5" width="33" height="33" fill="none"/>
    </g>
    <g id="Rectangle_93-9" data-name="Rectangle 93" transform="translate(20380.764 -3192.791)" fill="none" stroke="#000" stroke-width="1">
      <rect width="32" height="32" stroke="none"/>
      <rect x="-0.5" y="-0.5" width="33" height="33" fill="none"/>
    </g>
    <g id="Rectangle_93-10" data-name="Rectangle 93" transform="translate(20413.764 -3192.791)" fill="none" stroke="#000" stroke-width="1">
      <rect width="32" height="32" stroke="none"/>
      <rect x="-0.5" y="-0.5" width="33" height="33" fill="none"/>
    </g>
    <g id="Rectangle_93-11" data-name="Rectangle 93" transform="translate(20446.764 -3192.791)" fill="none" stroke="#000" stroke-width="1">
      <rect width="32" height="32" stroke="none"/>
      <rect x="-0.5" y="-0.5" width="33" height="33" fill="none"/>
    </g>
    <g id="Rectangle_93-12" data-name="Rectangle 93" transform="translate(20479.764 -3192.791)" fill="none" stroke="#000" stroke-width="1">
      <rect width="32" height="32" stroke="none"/>
      <rect x="-0.5" y="-0.5" width="33" height="33" fill="none"/>
    </g>
    <g id="Rectangle_93-13" data-name="Rectangle 93" transform="translate(20512.764 -3192.791)" fill="none" stroke="#000" stroke-width="1">
      <rect width="32" height="32" stroke="none"/>
      <rect x="-0.5" y="-0.5" width="33" height="33" fill="none"/>
    </g>
  </g>
</svg>
