<svg xmlns="http://www.w3.org/2000/svg" xmlns:xlink="http://www.w3.org/1999/xlink" width="400" height="400" viewBox="0 0 400 400">
  <defs>
    <clipPath id="clip-path">
      <rect width="444" height="440" fill="none"/>
    </clipPath>
    <clipPath id="clip-Artboard_16">
      <rect width="400" height="400"/>
    </clipPath>
  </defs>
  <g id="Artboard_16" data-name="Artboard – 16" clip-path="url(#clip-Artboard_16)">
    <g id="Repeat_Grid_48" data-name="Repeat Grid 48" transform="translate(-16.5 -20.5)" clip-path="url(#clip-path)">
      <g transform="translate(-424.5 -1285.5)">
        <g id="Rectangle_6" data-name="Rectangle 6" transform="translate(425 1286)" fill="none" stroke="#000" stroke-width="1">
          <rect width="108" height="108" stroke="none"/>
          <rect x="-0.5" y="-0.5" width="109" height="109" fill="none"/>
        </g>
      </g>
      <g transform="translate(-315.5 -1285.5)">
        <g id="Rectangle_6-2" data-name="Rectangle 6" transform="translate(425 1286)" fill="none" stroke="#000" stroke-width="1">
          <rect width="108" height="108" stroke="none"/>
          <rect x="-0.5" y="-0.5" width="109" height="109" fill="none"/>
        </g>
      </g>
      <g transform="translate(-206.5 -1285.5)">
        <g id="Rectangle_6-3" data-name="Rectangle 6" transform="translate(425 1286)" fill="none" stroke="#000" stroke-width="1">
          <rect width="108" height="108" stroke="none"/>
          <rect x="-0.5" y="-0.5" width="109" height="109" fill="none"/>
        </g>
      </g>
      <g transform="translate(-97.5 -1285.5)">
        <g id="Rectangle_6-4" data-name="Rectangle 6" transform="translate(425 1286)" fill="none" stroke="#000" stroke-width="1">
          <rect width="108" height="108" stroke="none"/>
          <rect x="-0.5" y="-0.5" width="109" height="109" fill="none"/>
        </g>
      </g>
      <g transform="translate(11.5 -1285.5)">
        <g id="Rectangle_6-5" data-name="Rectangle 6" transform="translate(425 1286)" fill="none" stroke="#000" stroke-width="1">
          <rect width="108" height="108" stroke="none"/>
          <rect x="-0.5" y="-0.5" width="109" height="109" fill="none"/>
        </g>
      </g>
      <g transform="translate(-424.5 -1176.5)">
        <g id="Rectangle_6-6" data-name="Rectangle 6" transform="translate(425 1286)" fill="none" stroke="#000" stroke-width="1">
          <rect width="108" height="108" stroke="none"/>
          <rect x="-0.5" y="-0.5" width="109" height="109" fill="none"/>
        </g>
      </g>
      <g transform="translate(-315.5 -1176.5)">
        <g id="Rectangle_6-7" data-name="Rectangle 6" transform="translate(425 1286)" fill="none" stroke="#000" stroke-width="1">
          <rect width="108" height="108" stroke="none"/>
          <rect x="-0.5" y="-0.5" width="109" height="109" fill="none"/>
        </g>
      </g>
      <g transform="translate(-206.5 -1176.5)">
        <g id="Rectangle_6-8" data-name="Rectangle 6" transform="translate(425 1286)" fill="none" stroke="#000" stroke-width="1">
          <rect width="108" height="108" stroke="none"/>
          <rect x="-0.5" y="-0.5" width="109" height="109" fill="none"/>
        </g>
      </g>
      <g transform="translate(-97.5 -1176.5)">
        <g id="Rectangle_6-9" data-name="Rectangle 6" transform="translate(425 1286)" fill="none" stroke="#000" stroke-width="1">
          <rect width="108" height="108" stroke="none"/>
          <rect x="-0.5" y="-0.5" width="109" height="109" fill="none"/>
        </g>
      </g>
      <g transform="translate(11.5 -1176.5)">
        <g id="Rectangle_6-10" data-name="Rectangle 6" transform="translate(425 1286)" fill="none" stroke="#000" stroke-width="1">
          <rect width="108" height="108" stroke="none"/>
          <rect x="-0.5" y="-0.5" width="109" height="109" fill="none"/>
        </g>
      </g>
      <g transform="translate(-424.5 -1067.5)">
        <g id="Rectangle_6-11" data-name="Rectangle 6" transform="translate(425 1286)" fill="none" stroke="#000" stroke-width="1">
          <rect width="108" height="108" stroke="none"/>
          <rect x="-0.5" y="-0.5" width="109" height="109" fill="none"/>
        </g>
      </g>
      <g transform="translate(-315.5 -1067.5)">
        <g id="Rectangle_6-12" data-name="Rectangle 6" transform="translate(425 1286)" fill="none" stroke="#000" stroke-width="1">
          <rect width="108" height="108" stroke="none"/>
          <rect x="-0.5" y="-0.5" width="109" height="109" fill="none"/>
        </g>
      </g>
      <g transform="translate(-206.5 -1067.5)">
        <g id="Rectangle_6-13" data-name="Rectangle 6" transform="translate(425 1286)" fill="none" stroke="#000" stroke-width="1">
          <rect width="108" height="108" stroke="none"/>
          <rect x="-0.5" y="-0.5" width="109" height="109" fill="none"/>
        </g>
      </g>
      <g transform="translate(-97.5 -1067.5)">
        <g id="Rectangle_6-14" data-name="Rectangle 6" transform="translate(425 1286)" fill="none" stroke="#000" stroke-width="1">
          <rect width="108" height="108" stroke="none"/>
          <rect x="-0.5" y="-0.5" width="109" height="109" fill="none"/>
        </g>
      </g>
      <g transform="translate(11.5 -1067.5)">
        <g id="Rectangle_6-15" data-name="Rectangle 6" transform="translate(425 1286)" fill="none" stroke="#000" stroke-width="1">
          <rect width="108" height="108" stroke="none"/>
          <rect x="-0.5" y="-0.5" width="109" height="109" fill="none"/>
        </g>
      </g>
      <g transform="translate(-424.5 -958.5)">
        <g id="Rectangle_6-16" data-name="Rectangle 6" transform="translate(425 1286)" fill="none" stroke="#000" stroke-width="1">
          <rect width="108" height="108" stroke="none"/>
          <rect x="-0.5" y="-0.5" width="109" height="109" fill="none"/>
        </g>
      </g>
      <g transform="translate(-315.5 -958.5)">
        <g id="Rectangle_6-17" data-name="Rectangle 6" transform="translate(425 1286)" fill="none" stroke="#000" stroke-width="1">
          <rect width="108" height="108" stroke="none"/>
          <rect x="-0.5" y="-0.5" width="109" height="109" fill="none"/>
        </g>
      </g>
      <g transform="translate(-206.5 -958.5)">
        <g id="Rectangle_6-18" data-name="Rectangle 6" transform="translate(425 1286)" fill="none" stroke="#000" stroke-width="1">
          <rect width="108" height="108" stroke="none"/>
          <rect x="-0.5" y="-0.5" width="109" height="109" fill="none"/>
        </g>
      </g>
      <g transform="translate(-97.5 -958.5)">
        <g id="Rectangle_6-19" data-name="Rectangle 6" transform="translate(425 1286)" fill="none" stroke="#000" stroke-width="1">
          <rect width="108" height="108" stroke="none"/>
          <rect x="-0.5" y="-0.5" width="109" height="109" fill="none"/>
        </g>
      </g>
      <g transform="translate(11.5 -958.5)">
        <g id="Rectangle_6-20" data-name="Rectangle 6" transform="translate(425 1286)" fill="none" stroke="#000" stroke-width="1">
          <rect width="108" height="108" stroke="none"/>
          <rect x="-0.5" y="-0.5" width="109" height="109" fill="none"/>
        </g>
      </g>
      <g transform="translate(-424.5 -849.5)">
        <g id="Rectangle_6-21" data-name="Rectangle 6" transform="translate(425 1286)" fill="none" stroke="#000" stroke-width="1">
          <rect width="108" height="108" stroke="none"/>
          <rect x="-0.5" y="-0.5" width="109" height="109" fill="none"/>
        </g>
      </g>
      <g transform="translate(-315.5 -849.5)">
        <g id="Rectangle_6-22" data-name="Rectangle 6" transform="translate(425 1286)" fill="none" stroke="#000" stroke-width="1">
          <rect width="108" height="108" stroke="none"/>
          <rect x="-0.5" y="-0.5" width="109" height="109" fill="none"/>
        </g>
      </g>
      <g transform="translate(-206.5 -849.5)">
        <g id="Rectangle_6-23" data-name="Rectangle 6" transform="translate(425 1286)" fill="none" stroke="#000" stroke-width="1">
          <rect width="108" height="108" stroke="none"/>
          <rect x="-0.5" y="-0.5" width="109" height="109" fill="none"/>
        </g>
      </g>
      <g transform="translate(-97.5 -849.5)">
        <g id="Rectangle_6-24" data-name="Rectangle 6" transform="translate(425 1286)" fill="none" stroke="#000" stroke-width="1">
          <rect width="108" height="108" stroke="none"/>
          <rect x="-0.5" y="-0.5" width="109" height="109" fill="none"/>
        </g>
      </g>
      <g transform="translate(11.5 -849.5)">
        <g id="Rectangle_6-25" data-name="Rectangle 6" transform="translate(425 1286)" fill="none" stroke="#000" stroke-width="1">
          <rect width="108" height="108" stroke="none"/>
          <rect x="-0.5" y="-0.5" width="109" height="109" fill="none"/>
        </g>
      </g>
    </g>
  </g>
</svg>
