<svg xmlns="http://www.w3.org/2000/svg" xmlns:xlink="http://www.w3.org/1999/xlink" width="32" height="32" viewBox="0 0 32 32">
  <defs>
    <clipPath id="clip-safely_icon1">
      <rect width="32" height="32"/>
    </clipPath>
  </defs>
  <g id="safely_icon1" clip-path="url(#clip-safely_icon1)">
    <path id="Path_8747" data-name="Path 8747" d="M0,0H32V32H0Z" fill="none"/>
    <g id="noun_228825_cc" transform="translate(-0.327 -3.6)">
      <path id="Path_5824" data-name="Path 5824" d="M7.926,30.393H24.718A3.617,3.617,0,0,0,27.85,25L19.428,10.416a3.564,3.564,0,0,0-6.211,0L4.794,25A3.621,3.621,0,0,0,7.926,30.393Zm8.422-3.237a1.342,1.342,0,1,1,0-2.685,1.343,1.343,0,0,1,0,2.685Zm-.342-12.107a1.336,1.336,0,0,1,1.553.763,1.833,1.833,0,0,1,.132.658c-.026.658-.079,1.342-.132,2-.053,1.026-.132,2.079-.184,3.106-.026.342-.026.632-.026.974a.994.994,0,0,1-1,.974.972.972,0,0,1-1-.948c-.079-1.605-.184-3.211-.263-4.816-.026-.421-.053-.842-.079-1.29A1.394,1.394,0,0,1,16.006,15.048Z" transform="translate(0 0)"/>
    </g>
  </g>
</svg>
