<svg xmlns="http://www.w3.org/2000/svg" xmlns:xlink="http://www.w3.org/1999/xlink" width="32" height="32" viewBox="0 0 32 32">
  <defs>
    <clipPath id="clip-safely_icon3">
      <rect width="32" height="32"/>
    </clipPath>
  </defs>
  <g id="safely_icon3" clip-path="url(#clip-safely_icon3)">
    <path id="Path_8747" data-name="Path 8747" d="M0,0H32V32H0Z" fill="none"/>
    <g id="noun_421_cc" transform="translate(429.001 335)">
      <path id="Path_5826" data-name="Path 5826" d="M24,6.739c0-.01,0-.02,0-.03s0-.01,0-.015,0-.014,0-.021,0-.017,0-.025v0a.9.9,0,0,0-.251-.493,18.278,18.278,0,0,0-2.6-2.452A16.673,16.673,0,0,0,14.34.245,11.327,11.327,0,0,0,9.958.185,13.8,13.8,0,0,0,6.144,1.531,20.705,20.705,0,0,0,1.054,5.3c-.277.275-.552.555-.8.853a.92.92,0,0,0,0,1.264,18.291,18.291,0,0,0,2.6,2.452,16.675,16.675,0,0,0,6.794,3.454,11.324,11.324,0,0,0,4.383.061,13.8,13.8,0,0,0,3.814-1.346,20.712,20.712,0,0,0,5.09-3.767c.277-.275.552-.555.8-.853a.9.9,0,0,0,.251-.494v0c0-.008,0-.017,0-.025s0-.014,0-.021V6.858c0-.01,0-.019,0-.029s0-.03,0-.045S24,6.754,24,6.739ZM12,11.4a4.618,4.618,0,1,1,4.618-4.618A4.618,4.618,0,0,1,12,11.4Z" transform="translate(-425 -326)"/>
      <path id="Path_5827" data-name="Path 5827" d="M1.529,0A1.529,1.529,0,1,1,0,1.529,1.529,1.529,0,0,1,1.529,0Z" transform="translate(-414.53 -320.745)"/>
    </g>
  </g>
</svg>
