<svg xmlns="http://www.w3.org/2000/svg" xmlns:xlink="http://www.w3.org/1999/xlink" width="32" height="32" viewBox="0 0 32 32">
  <defs>
    <clipPath id="clip-safely_icon6">
      <rect width="32" height="32"/>
    </clipPath>
  </defs>
  <g id="safely_icon6" clip-path="url(#clip-safely_icon6)">
    <path id="Path_8747" data-name="Path 8747" d="M0,0H32V32H0Z" fill="none"/>
    <g id="noun_15237_cc" transform="translate(479 398.877)">
      <g id="Group_742" data-name="Group 742" transform="translate(-475 -389.877)">
        <path id="Path_5832" data-name="Path 5832" d="M34.026,26.142a5.746,5.746,0,0,1,.743-.012.233.233,0,0,1,.141.045.077.077,0,0,1,0,.119c-.075.069-.184.045-.276.047-.137-.011-.275,0-.412,0-.1,0-.219.042-.317-.013a.084.084,0,0,1-.047-.115A.222.222,0,0,1,34.026,26.142Z" transform="translate(-26.01 -26.123)"/>
        <path id="Path_5833" data-name="Path 5833" d="M40.547,26.614a.4.4,0,0,1,.124-.005,5.562,5.562,0,0,1,.687.175c.048.016.111.041.111.1s-.053.082-.1.1a.527.527,0,0,1-.315-.05c-.165-.049-.333-.087-.5-.122-.049-.012-.109-.038-.113-.1S40.5,26.629,40.547,26.614Z" transform="translate(-30.937 -26.484)"/>
        <path id="Path_5834" data-name="Path 5834" d="M29.745,27.239a.288.288,0,0,1,.243.027.081.081,0,0,1-.009.135.538.538,0,0,0-.255.306c-.025.095-.143.112-.226.1-.063-.006-.155-.045-.141-.123A.694.694,0,0,1,29.745,27.239Z" transform="translate(-22.651 -26.946)"/>
        <path id="Path_5835" data-name="Path 5835" d="M45.477,28.965a.252.252,0,0,1,.226.046,1.692,1.692,0,0,1,.159.425.085.085,0,0,1-.023.1.274.274,0,0,1-.272.022.111.111,0,0,1-.064-.07,2.108,2.108,0,0,0-.141-.4C45.341,29.017,45.418,28.976,45.477,28.965Z" transform="translate(-34.611 -28.241)"/>
        <path id="Path_5836" data-name="Path 5836" d="M29.975,30.884c.1-.029.235-.026.287.077a3.118,3.118,0,0,0,.255.346.078.078,0,0,1,0,.115.281.281,0,0,1-.24.036c-.065-.014-.1-.074-.142-.121A2.841,2.841,0,0,1,29.9,31C29.87,30.948,29.924,30.9,29.975,30.884Z" transform="translate(-23.05 -29.669)"/>
        <path id="Path_5837" data-name="Path 5837" d="M62.762,31.065c.216-.009.432-.02.648-.008a.346.346,0,0,1,.227.049.075.075,0,0,1,.013.111.213.213,0,0,1-.147.057,6.311,6.311,0,0,0-.695.007.25.25,0,0,1-.21-.057.076.076,0,0,1,.022-.118A.29.29,0,0,1,62.762,31.065Z" transform="translate(-47.481 -29.807)"/>
        <path id="Path_5838" data-name="Path 5838" d="M69.218,31.629a.371.371,0,0,1,.214,0c.192.046.383.1.578.136a.253.253,0,0,1,.143.06.079.079,0,0,1-.018.122.3.3,0,0,1-.238.024c-.189-.037-.376-.084-.562-.132-.068-.017-.16-.02-.193-.092C69.118,31.692,69.171,31.645,69.218,31.629Z" transform="translate(-52.381 -30.226)"/>
        <path id="Path_5839" data-name="Path 5839" d="M57,31.707a.345.345,0,0,1,.3.024.076.076,0,0,1,0,.12.189.189,0,0,1-.088.041c-.2.046-.392.092-.584.152a.308.308,0,0,1-.267,0,.086.086,0,0,1-.048-.113.231.231,0,0,1,.13-.077Q56.715,31.772,57,31.707Z" transform="translate(-42.789 -30.281)"/>
        <path id="Path_5840" data-name="Path 5840" d="M46.622,32.785a.25.25,0,0,1,.243.06.947.947,0,0,0,.217.381.079.079,0,0,1-.018.129.264.264,0,0,1-.319-.035,1.023,1.023,0,0,1-.231-.414C46.5,32.838,46.568,32.8,46.622,32.785Z" transform="translate(-35.473 -31.097)"/>
        <path id="Path_5841" data-name="Path 5841" d="M75.491,33a.4.4,0,0,1,.14,0,5.481,5.481,0,0,1,.723.21.087.087,0,0,1,.056.083c0,.041-.039.066-.071.084a.324.324,0,0,1-.207,0A6.143,6.143,0,0,0,75.5,33.2c-.045-.014-.108-.04-.106-.1S75.447,33.021,75.491,33Z" transform="translate(-57.059 -31.259)"/>
        <path id="Path_5842" data-name="Path 5842" d="M51.514,33.707a.266.266,0,0,1,.266.043.083.083,0,0,1-.04.128,5.4,5.4,0,0,1-.613.232.27.27,0,0,1-.288-.041c-.044-.057.015-.125.072-.137A5.622,5.622,0,0,0,51.514,33.707Z" transform="translate(-38.695 -31.779)"/>
        <path id="Path_5843" data-name="Path 5843" d="M32.8,34.393a.256.256,0,0,1,.279.061,1.783,1.783,0,0,1,.2.3.161.161,0,0,1-.21.234.156.156,0,0,1-.131-.082c-.008-.16-.142-.269-.224-.394C32.7,34.453,32.753,34.411,32.8,34.393Z" transform="translate(-25.161 -32.292)"/>
        <path id="Path_5844" data-name="Path 5844" d="M80.865,35.223a.284.284,0,0,1,.247.037.746.746,0,0,1,.26.336c.013.066.014.156-.057.189a.27.27,0,0,1-.29-.025c-.041-.039,0-.1-.025-.147a.666.666,0,0,0-.205-.245C80.742,35.31,80.8,35.24,80.865,35.223Z" transform="translate(-61.08 -32.916)"/>
        <path id="Path_5845" data-name="Path 5845" d="M69.548,35.945a2.058,2.058,0,0,1,.5,0c.13.023.261.038.388.072.04.013.094.036.094.086s-.048.089-.093.1a.555.555,0,0,1-.268-.016,2.225,2.225,0,0,0-.511-.044.225.225,0,0,1-.194-.076C69.429,36.013,69.494,35.958,69.548,35.945Z" transform="translate(-52.618 -33.453)"/>
        <path id="Path_5846" data-name="Path 5846" d="M64.094,36.577a.254.254,0,0,1,.242.057.092.092,0,0,1-.067.133c-.2.059-.4.131-.6.205a.323.323,0,0,1-.225.009c-.043-.017-.1-.056-.081-.109s.074-.068.118-.088C63.682,36.709,63.887,36.641,64.094,36.577Z" transform="translate(-48.063 -33.931)"/>
        <path id="Path_5847" data-name="Path 5847" d="M75.864,37.13a.468.468,0,0,1,.255.018,3.041,3.041,0,0,0,.547.086.2.2,0,0,1,.156.073c.029.055-.023.106-.07.126a.621.621,0,0,1-.263,0,4.915,4.915,0,0,1-.607-.11c-.051-.012-.118-.046-.111-.107S75.825,37.145,75.864,37.13Z" transform="translate(-57.339 -34.339)"/>
        <path id="Path_5848" data-name="Path 5848" d="M29.347,37.518a.256.256,0,0,1,.267.054c.034.053-.011.11-.062.128-.221.074-.448.128-.666.211a.3.3,0,0,1-.221-.029.078.078,0,0,1-.026-.118.384.384,0,0,1,.168-.078C28.985,37.623,29.168,37.578,29.347,37.518Z" transform="translate(-22.102 -34.629)"/>
        <path id="Path_5849" data-name="Path 5849" d="M58.861,38.691a.277.277,0,0,1,.266.037.083.083,0,0,1-.037.134,1.794,1.794,0,0,0-.389.212c-.048.038-.085.1-.15.109a.278.278,0,0,1-.231-.041.076.076,0,0,1,0-.116A1.6,1.6,0,0,1,58.861,38.691Z" transform="translate(-44.276 -35.503)"/>
        <path id="Path_5850" data-name="Path 5850" d="M10.387,39.475a4.519,4.519,0,0,1,.812.038.19.19,0,0,1,.137.069.089.089,0,0,1-.061.122.423.423,0,0,1-.236.01,4.542,4.542,0,0,0-.639-.03c-.063-.006-.153-.046-.138-.124A.155.155,0,0,1,10.387,39.475Z" transform="translate(-8.379 -36.099)"/>
        <path id="Path_5851" data-name="Path 5851" d="M24,39.69a.264.264,0,0,1,.249.055.085.085,0,0,1-.045.126,2.855,2.855,0,0,1-.652.251.262.262,0,0,1-.223-.039.077.077,0,0,1-.005-.116.263.263,0,0,1,.129-.056A3.107,3.107,0,0,0,24,39.69Z" transform="translate(-18.12 -36.256)"/>
        <path id="Path_5852" data-name="Path 5852" d="M5.183,40.187a.253.253,0,0,1,.267.055.094.094,0,0,1-.066.126,2.482,2.482,0,0,0-.485.247.279.279,0,0,1-.315.006.079.079,0,0,1,.005-.129A2.748,2.748,0,0,1,5.183,40.187Z" transform="translate(-4.114 -36.623)"/>
        <path id="Path_5853" data-name="Path 5853" d="M16.759,40.364a.22.22,0,0,1,.217-.076c.175.031.351.065.527.089.106.016.228,0,.311.083.037.107-.094.157-.179.149a7.334,7.334,0,0,1-.763-.113C16.813,40.484,16.729,40.438,16.759,40.364Z" transform="translate(-13.232 -36.708)"/>
        <path id="Path_5854" data-name="Path 5854" d="M59.03,41.957a.268.268,0,0,1,.264.041c.129.117.27.219.406.326a.079.079,0,0,1,0,.133.276.276,0,0,1-.318-.021,4.315,4.315,0,0,1-.422-.347C58.918,42.035,58.975,41.97,59.03,41.957Z" transform="translate(-44.765 -37.945)"/>
        <path id="Path_5855" data-name="Path 5855" d="M2.944,43.233a.271.271,0,0,1,.216.037c.057.037.014.11.026.163s.046.058.079.068a.694.694,0,0,1,.254.05.078.078,0,0,1,.015.124.3.3,0,0,1-.237.05.629.629,0,0,1-.408-.144.258.258,0,0,1-.06-.27C2.846,43.262,2.9,43.245,2.944,43.233Z" transform="translate(-2.815 -38.905)"/>
        <path id="Path_5856" data-name="Path 5856" d="M33.619,43.413a.292.292,0,0,1,.2.03c.092.05.184.1.273.157a.079.079,0,0,1,.007.121.288.288,0,0,1-.239.039c-.083-.026-.147-.092-.229-.118-.119.016-.236.084-.358.049-.057-.007-.127-.051-.113-.117s.076-.071.124-.086C33.394,43.459,33.506,43.436,33.619,43.413Z" transform="translate(-25.492 -39.041)"/>
        <path id="Path_5857" data-name="Path 5857" d="M8.181,44.008A3.9,3.9,0,0,1,9,44.062a.27.27,0,0,1,.119.047.083.083,0,0,1-.011.127.384.384,0,0,1-.3.019,3.759,3.759,0,0,0-.588-.037c-.061,0-.148-.034-.151-.107S8.13,44.023,8.181,44.008Z" transform="translate(-6.736 -39.487)"/>
        <path id="Path_5858" data-name="Path 5858" d="M28.135,44.866a.268.268,0,0,1,.261.041.086.086,0,0,1-.046.134,5.68,5.68,0,0,1-.658.226.249.249,0,0,1-.257-.06c-.033-.07.04-.122.1-.135A6.281,6.281,0,0,0,28.135,44.866Z" transform="translate(-21.209 -40.119)"/>
        <path id="Path_5859" data-name="Path 5859" d="M63.3,44.928a.336.336,0,0,1,.227,0,4.219,4.219,0,0,0,.44.195.778.778,0,0,1,.184.079.078.078,0,0,1,0,.122.285.285,0,0,1-.255.027,5.661,5.661,0,0,1-.583-.245c-.034-.016-.073-.037-.08-.078S63.266,44.947,63.3,44.928Z" transform="translate(-47.969 -40.164)"/>
        <path id="Path_5860" data-name="Path 5860" d="M14.516,45.076a.344.344,0,0,1,.144-.011c.238.043.479.064.718.1.046.015.105.032.119.085a.086.086,0,0,1-.057.1.59.59,0,0,1-.325,0c-.189-.021-.377-.047-.565-.079-.053-.011-.123-.039-.121-.1C14.427,45.117,14.477,45.091,14.516,45.076Z" transform="translate(-11.496 -40.277)"/>
        <path id="Path_5861" data-name="Path 5861" d="M38.024,45.863a.248.248,0,0,1,.225.059,2.967,2.967,0,0,1,.323.391c.032.065-.04.118-.1.13a.253.253,0,0,1-.254-.06,3.02,3.02,0,0,0-.3-.357.079.079,0,0,1-.01-.106A.217.217,0,0,1,38.024,45.863Z" transform="translate(-29.033 -40.872)"/>
        <path id="Path_5862" data-name="Path 5862" d="M21.016,46.01a1.218,1.218,0,0,1,.33.02,4.579,4.579,0,0,0,.51.027c.07,0,.167.056.139.139a.2.2,0,0,1-.16.073,4.322,4.322,0,0,1-.805-.062.143.143,0,0,1-.112-.08C20.9,46.065,20.965,46.025,21.016,46.01Z" transform="translate(-16.342 -40.98)"/>
        <path id="Path_5863" data-name="Path 5863" d="M69.023,46.958a.362.362,0,0,1,.157.006c.22.069.444.127.664.2a.1.1,0,0,1,.068.122.254.254,0,0,1-.27.06c-.213-.062-.426-.126-.64-.187-.048-.015-.107-.05-.1-.108S68.975,46.97,69.023,46.958Z" transform="translate(-52.207 -41.69)"/>
        <path id="Path_5864" data-name="Path 5864" d="M74.878,48.8a.331.331,0,0,1,.246.016c.163.055.322.117.483.176a.33.33,0,0,1,.159.087.079.079,0,0,1-.03.108.293.293,0,0,1-.276.009c-.191-.074-.383-.144-.576-.213-.042-.016-.092-.047-.083-.1S74.845,48.822,74.878,48.8Z" transform="translate(-56.614 -43.062)"/>
        <path id="Path_5865" data-name="Path 5865" d="M40.625,49.43a.239.239,0,0,1,.223.061c.085.133.171.266.261.395a.08.08,0,0,1-.029.11.246.246,0,0,1-.338-.061,4.325,4.325,0,0,1-.244-.384C40.482,49.476,40.565,49.441,40.625,49.43Z" transform="translate(-30.977 -43.539)"/>
        <path id="Path_5866" data-name="Path 5866" d="M80.455,50.97a.523.523,0,0,1,.333.088c.116.052.231.106.346.161a.348.348,0,0,1,.119.072.083.083,0,0,1-.005.095.282.282,0,0,1-.3.023c-.181-.09-.367-.171-.551-.255a.089.089,0,0,1-.057-.111C80.357,51,80.411,50.983,80.455,50.97Z" transform="translate(-60.748 -44.687)"/>
        <path id="Path_5867" data-name="Path 5867" d="M43.332,52.968A.263.263,0,0,1,43.58,53a3.391,3.391,0,0,0,.387.308c.028.021.065.042.07.08s-.04.084-.081.1a.3.3,0,0,1-.266-.037,3.077,3.077,0,0,1-.439-.353C43.215,53.042,43.274,52.981,43.332,52.968Z" transform="translate(-33.028 -46.176)"/>
        <path id="Path_5868" data-name="Path 5868" d="M65.477,53.075a4.739,4.739,0,0,1,.539.017c.063,0,.124.018.187.018a.4.4,0,0,1,.215.057.076.076,0,0,1,0,.118.319.319,0,0,1-.27.038c-.214-.023-.428-.034-.643-.04a.191.191,0,0,1-.142-.078C65.34,53.134,65.42,53.091,65.477,53.075Z" transform="translate(-49.56 -46.263)"/>
        <path id="Path_5869" data-name="Path 5869" d="M59.751,53.281a.249.249,0,0,1,.207.044.076.076,0,0,1,0,.122c-.058.049-.138.037-.206.056a2.212,2.212,0,0,0-.468.114.309.309,0,0,1-.223.023c-.041-.015-.093-.037-.1-.086s.048-.091.092-.11A2.891,2.891,0,0,1,59.751,53.281Z" transform="translate(-44.773 -46.416)"/>
        <path id="Path_5870" data-name="Path 5870" d="M85.524,53.5a.31.31,0,0,1,.225.022c.174.1.348.2.516.31a.077.077,0,0,1,0,.129.282.282,0,0,1-.314-.007c-.15-.1-.3-.186-.458-.273-.035-.018-.074-.049-.069-.094S85.483,53.514,85.524,53.5Z" transform="translate(-64.558 -46.574)"/>
        <path id="Path_5871" data-name="Path 5871" d="M72,53.892a1.3,1.3,0,0,1,.407.066c.142.038.287.069.427.115.05.013.1.067.072.12a.193.193,0,0,1-.18.074.833.833,0,0,1-.224-.048c-.171-.045-.343-.086-.514-.125-.047-.014-.109-.041-.107-.1S71.953,53.9,72,53.892Z" transform="translate(-54.436 -46.873)"/>
        <path id="Path_5872" data-name="Path 5872" d="M77.926,55.64a.434.434,0,0,1,.318.04c.175.067.349.135.518.215a.078.078,0,0,1,.023.134.284.284,0,0,1-.24.041c-.192-.088-.388-.166-.587-.237a.152.152,0,0,1-.111-.092A.119.119,0,0,1,77.926,55.64Z" transform="translate(-58.892 -48.171)"/>
        <path id="Path_5873" data-name="Path 5873" d="M47.589,55.967A.3.3,0,0,1,47.8,56c.157.111.312.224.461.346a.077.077,0,0,1-.019.126.269.269,0,0,1-.31-.023c-.137-.108-.277-.213-.421-.311a.085.085,0,0,1-.031-.1A.159.159,0,0,1,47.589,55.967Z" transform="translate(-36.196 -48.424)"/>
        <path id="Path_5874" data-name="Path 5874" d="M58.241,55.952a.26.26,0,0,1,.253.053,1.737,1.737,0,0,0,.22.4.09.09,0,0,1-.056.133.259.259,0,0,1-.281-.041,1.627,1.627,0,0,1-.233-.424C58.126,56.009,58.19,55.967,58.241,55.952Z" transform="translate(-44.164 -48.409)"/>
        <path id="Path_5875" data-name="Path 5875" d="M89.951,56.4a.278.278,0,0,1,.228.037c.142.113.281.232.413.357a.077.077,0,0,1,0,.112.273.273,0,0,1-.253.034c-.056-.013-.089-.063-.132-.1-.11-.1-.229-.2-.343-.3C89.809,56.485,89.886,56.414,89.951,56.4Z" transform="translate(-67.859 -48.748)"/>
        <path id="Path_5876" data-name="Path 5876" d="M83.22,58.024a.3.3,0,0,1,.237.029c.17.1.339.2.5.306a.08.08,0,0,1-.005.134.281.281,0,0,1-.3-.013c-.148-.1-.3-.189-.456-.275-.03-.018-.067-.04-.069-.079C83.118,58.07,83.175,58.038,83.22,58.024Z" transform="translate(-62.836 -49.955)"/>
        <path id="Path_5877" data-name="Path 5877" d="M51.448,59.126a.269.269,0,0,1,.273.052q.176.17.347.347a.09.09,0,0,1,.023.092.261.261,0,0,1-.282.055c-.061-.021-.1-.079-.14-.123-.082-.08-.161-.165-.247-.241-.027-.026-.062-.052-.059-.094S51.41,59.141,51.448,59.126Z" transform="translate(-39.098 -50.777)"/>
        <path id="Path_5878" data-name="Path 5878" d="M60.79,59.534a.509.509,0,0,1,.154,0,.431.431,0,0,1,.15.129c.089.1.183.193.272.291a.075.075,0,0,1-.007.108.269.269,0,0,1-.235.039.277.277,0,0,1-.14-.1c-.1-.112-.21-.217-.306-.333C60.65,59.6,60.729,59.543,60.79,59.534Z" transform="translate(-46.056 -51.09)"/>
        <path id="Path_5879" data-name="Path 5879" d="M93.315,59.745a.271.271,0,0,1,.242.04,1.224,1.224,0,0,1,.218.419.1.1,0,0,1-.015.1.273.273,0,0,1-.225.046.149.149,0,0,1-.123-.1.949.949,0,0,0-.151-.321c-.02-.03-.053-.058-.045-.1S93.274,59.76,93.315,59.745Z" transform="translate(-70.378 -51.243)"/>
        <path id="Path_5880" data-name="Path 5880" d="M87.214,61.056a.216.216,0,0,1,.273.114.46.46,0,0,1-.048.4.158.158,0,0,1-.136.1.238.238,0,0,1-.23-.067c-.032-.062.03-.116.044-.174a.241.241,0,0,0-.005-.239C87.074,61.121,87.156,61.066,87.214,61.056Z" transform="translate(-65.78 -52.224)"/>
        <path id="Path_5881" data-name="Path 5881" d="M54.627,62.541a.259.259,0,0,1,.259.049c.1.124.2.252.294.381a.075.075,0,0,1-.014.109.25.25,0,0,1-.346-.049c-.086-.121-.179-.236-.269-.353C54.51,62.619,54.567,62.552,54.627,62.541Z" transform="translate(-41.471 -53.33)"/>
        <path id="Path_5882" data-name="Path 5882" d="M63.959,62.954a.238.238,0,0,1,.233.069,1.878,1.878,0,0,1,.258.379.081.081,0,0,1-.013.1.287.287,0,0,1-.255.034.151.151,0,0,1-.1-.095,2.266,2.266,0,0,0-.248-.355C63.805,63.015,63.9,62.962,63.959,62.954Z" transform="translate(-48.418 -53.646)"/>
        <path id="Path_5883" data-name="Path 5883" d="M95.135,63.459a.281.281,0,0,1,.278.061,1.226,1.226,0,0,1,.33.385c.02.063-.046.106-.1.117a.232.232,0,0,1-.257-.064c-.069-.154-.221-.244-.329-.368C95.021,63.532,95.085,63.478,95.135,63.459Z" transform="translate(-71.747 -54.018)"/>
        <path id="Path_5884" data-name="Path 5884" d="M87.083,64.868c.094-.022.228-.018.275.084a.72.72,0,0,0,.325.276c.031.016.069.041.064.081s-.035.064-.063.083a.268.268,0,0,1-.159.023c-.054,0-.1-.035-.143-.055A.883.883,0,0,1,86.994,65C86.963,64.934,87.029,64.883,87.083,64.868Z" transform="translate(-65.722 -55.072)"/>
        <path id="Path_5885" data-name="Path 5885" d="M57.164,66.126a.25.25,0,0,1,.266.053.773.773,0,0,1,.086.477c-.015.051-.072.066-.117.078a.255.255,0,0,1-.228-.051c-.033-.039-.01-.092-.014-.137a.761.761,0,0,0-.076-.3C57.059,66.186,57.116,66.14,57.164,66.126Z" transform="translate(-43.368 -56.009)"/>
        <path id="Path_5886" data-name="Path 5886" d="M64.385,66.71a.282.282,0,0,1,.25.035c.043.036.025.1,0,.142a3.282,3.282,0,0,1-.146.342.187.187,0,0,1-.19.088.218.218,0,0,1-.153-.049.088.088,0,0,1-.01-.108,2.86,2.86,0,0,0,.159-.387A.151.151,0,0,1,64.385,66.71Z" transform="translate(-48.638 -56.446)"/>
        <path id="Path_5887" data-name="Path 5887" d="M92.814,66.776a.389.389,0,0,1,.215-.006c.044.015.1.055.085.109s-.079.071-.127.088a2.453,2.453,0,0,1-.669.076.425.425,0,0,1-.244-.05.073.073,0,0,1-.013-.108.284.284,0,0,1,.239-.057A1.939,1.939,0,0,0,92.814,66.776Z" transform="translate(-69.501 -56.492)"/>
        <path id="Path_5888" data-name="Path 5888" d="M55.639,69.9a.27.27,0,0,1,.284.055.1.1,0,0,1-.012.085c-.087.124-.184.24-.28.357a.253.253,0,0,1-.3.059.088.088,0,0,1-.058-.12c.1-.126.205-.248.3-.379A.151.151,0,0,1,55.639,69.9Z" transform="translate(-42.011 -58.832)"/>
        <path id="Path_5889" data-name="Path 5889" d="M62.5,70.434a.272.272,0,0,1,.245.039.084.084,0,0,1,.019.093,3.808,3.808,0,0,0-.187.376.175.175,0,0,1-.178.1.2.2,0,0,1-.186-.075c-.021-.046.013-.089.03-.13.048-.112.106-.22.163-.328A.14.14,0,0,1,62.5,70.434Z" transform="translate(-47.204 -59.231)"/>
        <path id="Path_5890" data-name="Path 5890" d="M53.5,73.461a.31.31,0,0,1,.25.015.082.082,0,0,1,.032.115.963.963,0,0,0-.114.37c0,.064-.07.089-.122.1-.085.01-.2,0-.243-.087a.921.921,0,0,1,.116-.43A.158.158,0,0,1,53.5,73.461Z" transform="translate(-40.547 -61.488)"/>
        <path id="Path_5891" data-name="Path 5891" d="M61.786,74.219a.31.31,0,0,1,.205,0,.11.11,0,0,1,.081.1.375.375,0,0,0,.175.318.078.078,0,0,1,0,.13.282.282,0,0,1-.295,0,.538.538,0,0,1-.247-.447C61.694,74.271,61.745,74.237,61.786,74.219Z" transform="translate(-46.826 -62.057)"/>
        <path id="Path_5892" data-name="Path 5892" d="M54.52,77.114a.3.3,0,0,1,.256.025,1.549,1.549,0,0,0,.43.115.452.452,0,0,1,.225.057.076.076,0,0,1,.017.108.252.252,0,0,1-.223.058,2.007,2.007,0,0,1-.725-.191.087.087,0,0,1-.058-.088C54.438,77.152,54.488,77.133,54.52,77.114Z" transform="translate(-41.399 -64.22)"/>
        <path id="Path_5893" data-name="Path 5893" d="M61.637,77.568a.29.29,0,0,1,.251.029.08.08,0,0,1,.011.116.316.316,0,0,1-.146.065,3.2,3.2,0,0,1-.725.067.178.178,0,0,1-.175-.083c-.021-.067.046-.111.1-.124A3.452,3.452,0,0,0,61.637,77.568Z" transform="translate(-46.188 -64.56)"/>
      </g>
    </g>
  </g>
</svg>
