<svg xmlns="http://www.w3.org/2000/svg" xmlns:xlink="http://www.w3.org/1999/xlink" width="32" height="32" viewBox="0 0 32 32">
  <defs>
    <clipPath id="clip-safely_icon5">
      <rect width="32" height="32"/>
    </clipPath>
  </defs>
  <g id="safely_icon5" clip-path="url(#clip-safely_icon5)">
    <path id="Path_8747" data-name="Path 8747" d="M0,0H32V32H0Z" fill="none"/>
    <g id="noun_742722_cc" transform="translate(-0.5 -0.193)">
      <g id="Group_741" data-name="Group 741" transform="translate(4.5 4.193)">
        <path id="Path_5829" data-name="Path 5829" d="M6.025,1034.668a1.521,1.521,0,0,0-1.525,1.525v1.016a1.521,1.521,0,0,0,1.525,1.525h1.27v-2.025a.508.508,0,1,1,1.016,0v2.025h1.27v-2.025a.508.508,0,1,1,1.016,0v2.025h1.525v-2.025a.508.508,0,1,1,1.016,0v2.025h1.27v-2.025a.508.508,0,1,1,1.016,0v2.025H16.95v-2.025a.508.508,0,1,1,1.016,0v2.025h1.27v-2.025a.508.508,0,1,1,1.016,0v2.025h1.525v-2.025a.508.508,0,1,1,1.016,0v2.025h1.27v-2.025a.508.508,0,1,1,1.016,0v2.025h1.27a1.521,1.521,0,0,0,1.525-1.525v-1.016a1.521,1.521,0,0,0-1.525-1.525Z" transform="translate(-4.5 -1024.39)"/>
        <path id="Path_5830" data-name="Path 5830" d="M6.068,1033.811a10.132,10.132,0,0,1,20.188,0" transform="translate(-4.474 -1024.555)"/>
        <path id="Path_5831" data-name="Path 5831" d="M6.5,1042.518v3.281a2.03,2.03,0,0,0,.838,1.642l.06.044a4.068,4.068,0,0,0,4.042.427l4.717-2.094,4.715,2.094a4.069,4.069,0,0,0,4.044-.427l.06-.044a2.03,2.03,0,0,0,.838-1.642v-3.281l-2.948.542a37.067,37.067,0,0,1-13.415,0Zm1.779,2.031,4.828.76-3.557,1.524Zm15.754,0-1.27,2.285-3.557-1.525Z" transform="translate(-4.467 -1024.261)" fill-rule="evenodd"/>
      </g>
    </g>
  </g>
</svg>
