<svg xmlns="http://www.w3.org/2000/svg" xmlns:xlink="http://www.w3.org/1999/xlink" width="32" height="32" viewBox="0 0 32 32">
  <defs>
    <clipPath id="clip-safely_icon4">
      <rect width="32" height="32"/>
    </clipPath>
  </defs>
  <g id="safely_icon4" clip-path="url(#clip-safely_icon4)">
    <path id="Path_8747" data-name="Path 8747" d="M0,0H32V32H0Z" fill="none"/>
    <g id="noun_36062_cc" transform="translate(43 15)">
      <path id="Path_5828" data-name="Path 5828" d="M22.233.631,21.6,0h-.91l-.632.631H13.721v.61H10.514V.631H4.689L4.318.062H3.653L3.146,1.241H2V3.013c0,.077-.393.4-.451.492-.125.2-.272.594-.036.744.157.1.482.06.663.108a1.486,1.486,0,0,1,.4.16,1.58,1.58,0,0,1,.849,1.543A6.5,6.5,0,0,1,2.558,8.9C2.127,9.685,0,12.474,0,14.631c0,.895.987.771.987.771H6.01a1.143,1.143,0,0,0,.681-1.172L8.649,8.819s.33-1.1,1.188-.508c.483.335,2.86.162,3.6.162a1.784,1.784,0,0,0,1.64-1.295l.185-1.52s.125-.462,1.6-.462H22.3a.925.925,0,0,0,.856-1.019V2.405H24V.631ZM13.29,7.665H10.822A1.133,1.133,0,0,1,9.635,6.427a1.206,1.206,0,0,1,1.233-1.311c-.194,1.9,1.329,2.154.943,1.227a1.051,1.051,0,0,1,.6-1.356h0l1.06.01s.894.043.894,1.322C14.369,7.2,13.938,7.665,13.29,7.665Z" transform="translate(-39 -7)"/>
    </g>
  </g>
</svg>
